<?xml version="1.0" standalone="no"?>
<svg xmlns="http://www.w3.org/2000/svg" height="1702pt" preserveAspectRatio="xMidYMid meet" viewBox="0 0 1920 1702" width="1920pt">
  <path d="m9540 16998c-24-17-58-69-129-199-53-97-102-183-110-193-7-9-91-58-185-108-199-107-236-138-236-196 0-24 8-49 20-65 11-13 102-70 203-125 100-55 190-109 198-119 9-10 60-98 113-196 60-109 107-184 123-195 34-21 92-21 125 0 15 10 64 88 123 195 54 98 105 186 113 196 9 10 99 64 200 119 101 56 190 111 198 123 8 13 17 38 20 56 10 63-22 92-219 199-98 54-185 104-194 112-8 9-59 96-113 194-101 187-133 224-190 224-15 0-42-10-60-22zm-2039-2069c-214-23-437-110-615-243-348-257-542-689-498-1109 54-515 370-915 850-1076 194-65 424-80 627-40 520 100 922 514 1001 1031 19 123 14 335-10 447-63 287-233 560-449 722-45 33-93 70-107 81-50 41-246 127-345 152-96 24-273 47-339 45-17-1-69-6-115-10zm-714-1436c-3-10-5-4-5 12 0 17 2 24 5 18 2-7 2-21 0-30zm8031 1247c-9-6-46-66-83-134l-67-124-121-67c-67-37-128-74-134-83-7-9-13-28-13-44 0-33 17-46 165-131l107-62 68-125c103-190 130-190 235 0 38 67 77 128 89 136 12 9 70 43 131 77 173 97 169 125-29 235l-120 67-62 113c-34 62-70 122-79 132-19 21-59 26-87 10zm-648-1387c-1014-54-1906-191-2970-458-2145-537-4457-1529-6395-2743-1041-652-1976-1382-2695-2103-994-997-1576-1962-1697-2814-26-188-24-457 6-630 144-832 805-1416 1924-1699 480-122 997-177 1652-177 531 0 956 30 1535 107 458 61 1184 195 1258 233 167 85 177 331 19 438-71 48-118 51-277 19-647-130-1137-202-1740-257-288-26-1046-38-1316-20-705 46-1280 180-1702 395-489 251-769 591-858 1042-24 121-24 401 0 534 66 372 214 737 464 1140 636 1026 1877 2177 3457 3207 3264 2127 7449 3459 10280 3272 778-51 1430-232 1861-517 253-168 407-333 531-570 78-148 142-196 258-195 145 1 247 105 247 251 0 54-6 76-46 158-188 390-524 710-986 940-515 256-1128 396-1945 444-152 9-722 11-865 3zm-10457-1603c-146-34-287-179-322-331-24-101-5-232 46-319 94-160 261-240 453-218 224 26 400 253 375 483-18 170-145 326-307 376-62 20-183 24-245 9zm-3279-290c-13-5-46-53-84-122-34-62-70-122-80-132-10-11-70-47-132-82-121-66-141-89-122-140 7-20 40-43 134-93l125-67 65-117c75-134 88-149 125-149s54 20 127 151l63 113 125 68c134 73 153 94 134 147-7 20-38 42-134 94l-125 67-70 125c-77 140-98 159-151 137zm16540-9c-45-28-64-59-64-108 0-23 16-169 35-325 62-511 61-494 43-532-11-21-128-131-326-305-170-150-314-283-321-297-25-57 1-142 51-164 20-9 541-114 752-152 118-21 114-15 258-348 197-453 210-480 236-500 38-30 85-35 129-14 34 17 52 44 178 269 277 496 277 496 309 512 27 14 363 52 786 88 78 7 87 10 117 40 27 27 33 41 33 75 0 23-5 51-12 63-6 12-122 141-257 287-348 375-321 342-321 396 0 25 38 215 85 422s85 393 85 413c0 73-78 132-148 111-20-6-198-86-395-177-253-116-370-165-395-165-36 0-97 34-610 337-159 94-198 106-248 74zm-4829-42c-1061-69-2271-369-3485-864-1100-447-2109-1008-2960-1644-259-193-284-224-284-346 0-52 5-80 21-110 28-52 78-100 128-121 53-23 150-22 196 1 18 10 129 89 244 175 553 414 1139 772 1835 1119 1492 743 3008 1194 4305 1281 194 13 596 13 761 0 443-35 829-144 1064-303 402-271 467-697 191-1252-232-469-665-967-1291-1487-1274-1058-3171-1985-4955-2423-1253-307-2322-346-3020-109-190 65-261 58-351-31-89-88-98-210-24-318 34-49 85-81 198-121 610-215 1505-243 2508-76 2142 354 4558 1471 6144 2840 187 162 548 520 689 685 783 914 982 1735 571 2351-72 107-243 275-360 353-343 228-788 358-1380 401-154 11-567 11-745-1zm314-1017c-137-72-179-247-88-372 50-69 70-78 280-125 285-64 380-171 323-366-23-80-106-232-182-335-655-891-2492-1986-4382-2615-1079-358-2067-509-2612-399-159 33-218 24-295-44-57-50-82-104-83-175 0-81 19-130 70-182 55-55 95-70 270-101 114-21 155-23 465-23 368 0 455 7 820 66 1336 216 3062 887 4410 1717 584 359 1041 707 1400 1067 364 363 564 677 626 980 18 86 15 237-6 320-75 304-336 510-752 594-142 29-198 28-264-7zm-927-165c-14-7-50-61-90-136l-67-124-115-64c-139-78-150-87-150-128 0-40 10-49 140-120 58-31 112-64 122-73 9-10 37-57 64-107 69-132 88-155 128-155 41 0 46 5 126 148l65 117 117 65c64 36 123 71 132 79 17 14 21 67 8 88-4 6-64 43-132 81l-125 70-70 125c-79 143-101 162-153 134zm-1152-78c-261-75-521-157-715-224-912-318-1834-747-2625-1223-442-265-1015-672-1070-759-75-118-38-273 84-348 44-27 58-30 125-30 52 0 86 6 107 17 17 9 113 79 215 155 1047 786 2631 1548 3999 1923 174 47 230 89 266 195 39 111-22 247-133 300-62 30-134 29-253-6zm6450-988c-77-16-98-34-270-236-776-909-1938-1852-3335-2707-751-459-1667-940-2453-1288-122-54-150-71-186-111-52-58-71-117-63-195 16-157 177-262 324-210 173 61 1195 559 1642 801 1338 723 2509 1526 3476 2386 188 167 704 682 857 854 288 327 313 366 306 476-5 71-24 112-75 164-52 52-150 81-223 66zm-12647-946c-265-49-452-145-634-325-196-193-305-420-340-703-32-263 55-578 220-797 63-84 198-214 280-269 199-135 486-214 714-196 468 36 876 352 1021 790 118 358 49 771-179 1065-59 76-188 198-260 247-244 164-558 236-822 188zm12960-1350c-13-9-50-67-83-129-33-63-68-120-77-128-9-7-68-42-132-78-83-47-118-72-124-90-17-49 3-71 137-145l126-70 52-98c81-151 89-162 126-165 17-2 39 1 48 6s46 65 83 133l68 124 118 66c127 71 145 87 145 130 0 35-25 54-160 129l-105 58-65 122c-36 67-69 125-75 130-22 18-60 20-82 5zm-2403-1552c-498-84-792-586-617-1053 88-233 291-416 532-479 66-18 101-21 215-17 165 4 256 28 378 101 114 68 181 131 250 233 102 153 137 281 130 469-6 151-45 274-124 395-30 45-54 84-54 88 0 19-145 140-220 183-107 60-360 102-490 80zm680-319c-8-8-23-20-34-25-13-7-9-1 9 15 34 29 43 33 25 10zm-123-60c-3-3-12-4-19-1-8 3-5 6 6 6 11 1 17-2 13-5zm-154-11c-7-2-21-2-30 0-10 3-4 5 12 5 17 0 24-2 18-5zm105 0c-10-2-26-2-35 0-10 3-2 5 17 5s27-2 18-5zm-514-1129c3-8 2-12-4-9s-10 10-10 16c0 14 7 11 14-7zm-4859 702c-45-20-71-52-448-533-191-242-360-453-377-467-54-45-4-46-838 9-459 31-507 31-548 6-70-43-104-119-89-197 4-25 114-197 342-538 185-276 342-515 349-533 29-68 35-49-191-618-81-203-169-426-196-494-57-144-63-199-27-263 30-52 91-88 151-88 44 0 116 19 842 226 371 106 409 112 473 73 22-13 243-193 491-399 249-206 464-380 479-387 61-27 159-6 204 44 48 53 45 8 87 1094 10 243 13 260 68 310 15 14 132 91 258 171 630 398 762 482 782 501 84 76 59 243-44 292-21 10-285 110-587 221s-561 211-575 222c-14 10-34 34-44 53s-85 297-168 619c-120 468-156 592-176 619-47 62-148 88-218 57zm375-1707c-17-41-73-87-115-95-20-3-38-4-41-1-4 3 11 9 32 12 22 4 49 14 62 22 29 18 62 71 63 103 1 18 3 20 6 7 3-10-1-32-7-48zm-6013-1883c-20-8-46-45-96-135l-68-124-128-71c-137-76-155-97-135-146 8-19 46-46 137-96l125-70 70-124c38-69 75-128 81-132 21-13 74-9 88 8 8 9 43 68 79 133l66 116 104 57c145 80 160 92 160 132 0 42-11 52-150 129l-114 64-64 114c-87 155-100 168-155 145z" transform="matrix(.1 0 0 -.1 0 1702)" fill="#4EDD69" stroke="none" stroke-width="2" vector-effect="non-scaling-stroke"/>
</svg>
